HIERARCHY
ROOT Hips
{
	OFFSET	0.00	0.00	0.00
	CHANNELS 6 Xposition Yposition Zposition Zrotation Xrotation Yrotation
	JOINT LeftUpLeg
	{
		OFFSET	 0.126116	-0.014019	-0.065224
		CHANNELS 3 Zrotation Xrotation Yrotation
		JOINT LeftLeg
		{
			OFFSET	 0.000000	 0.000000	 0.569914
			CHANNELS 3 Zrotation Xrotation Yrotation
			JOINT LeftFoot
			{
				OFFSET	 0.000000	 0.000000	 0.544423
				CHANNELS 3 Zrotation Xrotation Yrotation
				JOINT LeftToeBase
				{
					OFFSET	 0.000000	 0.000000	 0.207117
					CHANNELS 3 Zrotation Xrotation Yrotation
					End Site
					{
						OFFSET	 0.000000	 0.000000	 0.207117
					}
				}
			}
		}
	}
	JOINT RightUpLeg
	{
		OFFSET	-0.124023	-0.008373	-0.065224
		CHANNELS 3 Zrotation Xrotation Yrotation
		JOINT RightLeg
		{
			OFFSET	 0.000000	 0.000000	 0.570047
			CHANNELS 3 Zrotation Xrotation Yrotation
			JOINT RightFoot
			{
				OFFSET	 0.000000	 0.000000	 0.544354
				CHANNELS 3 Zrotation Xrotation Yrotation
				JOINT RightToeBase
				{
					OFFSET	 0.000000	 0.000000	 0.207540
					CHANNELS 3 Zrotation Xrotation Yrotation
					End Site
					{
						OFFSET	 0.000000	 0.000000	 0.207540
					}
				}
			}
		}
	}
	JOINT Spine
	{
		OFFSET	 0.000184	-0.007763	 0.117403
		CHANNELS 3 Zrotation Xrotation Yrotation
		JOINT Spine1
		{
			OFFSET	 0.000000	 0.000000	 0.137269
			CHANNELS 3 Zrotation Xrotation Yrotation
			JOINT Spine2
			{
				OFFSET	 0.000000	 0.000000	 0.156879
				CHANNELS 3 Zrotation Xrotation Yrotation
				JOINT LeftShoulder
				{
					OFFSET	 0.080501	-0.002496	 0.160144
					CHANNELS 3 Zrotation Xrotation Yrotation
					JOINT LeftArm
					{
						OFFSET	 0.000000	 0.000000	 0.164363
						CHANNELS 3 Zrotation Xrotation Yrotation
						JOINT LeftForeArm
						{
							OFFSET	 0.000000	 0.000000	 0.364576
							CHANNELS 3 Zrotation Xrotation Yrotation
							JOINT LeftHand
							{
								OFFSET	 0.000000	 0.000000	 0.360812
								CHANNELS 3 Zrotation Xrotation Yrotation
								JOINT LeftHandIndex1
								{
									OFFSET	 0.000000	 0.000000	 0.086006
									CHANNELS 3 Zrotation Xrotation Yrotation
									JOINT LeftHandIndex2
									{
										OFFSET	 0.000000	 0.000000	 0.047236
										CHANNELS 3 Zrotation Xrotation Yrotation
										JOINT LeftHandIndex3
										{
											OFFSET	-0.004284	-0.000551	 0.038166
											CHANNELS 3 Zrotation Xrotation Yrotation
											End Site
											{
												OFFSET	-0.004284	-0.000551	 0.038166
											}
										}
									}
								}
							}
						}
					}
				}
				JOINT Neck
				{
					OFFSET	 0.000000	 0.000000	 0.176489
					CHANNELS 3 Zrotation Xrotation Yrotation
					JOINT Head
					{
						OFFSET	 0.000000	-0.001747	 0.077940
						CHANNELS 3 Zrotation Xrotation Yrotation
						End Site
						{
							OFFSET	 0.000000	-0.001747	 0.077940
						}
					}
				}
				JOINT RightShoulder
				{
					OFFSET	-0.080363	 0.000306	 0.159706
					CHANNELS 3 Zrotation Xrotation Yrotation
					JOINT RightArm
					{
						OFFSET	 0.000000	 0.000000	 0.164196
						CHANNELS 3 Zrotation Xrotation Yrotation
						JOINT RightForeArm
						{
							OFFSET	 0.000000	 0.000000	 0.365611
							CHANNELS 3 Zrotation Xrotation Yrotation
							JOINT RightHand
							{
								OFFSET	 0.000000	 0.000000	 0.360648
								CHANNELS 3 Zrotation Xrotation Yrotation
								JOINT RightHandIndex1
								{
									OFFSET	 0.000000	 0.000000	 0.069977
									CHANNELS 3 Zrotation Xrotation Yrotation
									JOINT RightHandIndex2
									{
										OFFSET	 0.000000	 0.000000	 0.052305
										CHANNELS 3 Zrotation Xrotation Yrotation
										JOINT RightHandIndex3
										{
											OFFSET	 0.009002	-0.000782	 0.042196
											CHANNELS 3 Zrotation Xrotation Yrotation
											End Site
											{
												OFFSET	 0.009002	-0.000782	 0.042196
											}
										}
									}
								}
							}
						}
					}
				}
			}
		}
	}
}
MOTION
Frames:    5
Frame Time: 0.03333334
-0.410514	 6.292157	-0.644911	-79.468850	-0.000014	-0.000013	 4.117246	-1.743471	 179.873500	 3.144691	-11.594560	 1.749916	 4.431090	 71.402270	 1.145380	-2.385832	 28.452790	-0.000001	-4.119452	-2.154259	-179.893100	-3.138409	-11.963990	-1.790670	-4.423576	 71.426400	-1.178366	 2.384659	 28.388700	-0.000001	-0.004749	 2.704451	 0.089748	-0.000863	-1.797850	-0.000071	-0.001046	-2.157420	-0.000088	-91.776180	 78.527400	-180.000000	 12.108180	-5.220949	-1.016094	-4.393887	-0.888960	-0.368824	-18.166230	-0.205541	-4.068498	-3.812334	 37.924440	-2.927599	-2.450526	 36.184240	 0.754587	-1.378229	 35.397820	-2.634230	-0.000002	-3.783157	-0.089647	-0.001374	 1.263112	 0.000040	 89.782090	 78.203830	-180.000000	-12.512950	-5.961371	 1.072636	 4.635304	-0.427204	 0.526674	 18.480990	-1.326616	 8.278516	 6.437017	 35.671460	-0.771858	 2.830251	 35.756010	-7.813440	-2.350882	 35.473990	 5.254307
-0.411494	 6.293344	-0.649229	 9.713922	 0.758015	 3.730278	 5.018781	-4.235698	 176.520700	-11.058740	-34.079540	-5.117622	 171.971500	 86.261520	 179.520200	-2.376141	 30.430150	-0.043339	 1.827182	-12.812060	 178.973300	 3.781547	-47.967420	 5.897570	-175.922100	 81.695010	-178.056100	 2.403600	 22.182210	-0.129430	-0.858582	 0.520603	-1.922513	-0.411169	-2.347476	-0.235708	-0.106891	-4.449560	-0.011192	-91.809230	 77.599180	 179.155400	 36.593390	 69.807950	-39.587540	-8.074888	-4.037328	-20.405440	 5.789841	-2.208043	-5.337839	-3.812334	 37.924440	-2.927599	-2.450526	 36.184240	 0.754587	-1.378229	 35.397820	-2.634230	 0.467106	 5.854217	-3.391401	 0.241276	-13.159120	-1.395242	 89.764240	 79.274540	-179.626800	-36.262570	 70.456620	 39.029620	 4.265667	-7.745931	 30.188840	-11.378750	-3.198305	 9.595360	 6.437017	 35.671460	-0.771858	 2.830251	 35.756010	-7.813440	-2.350882	 35.473990	 5.254307
-0.410077	 6.298687	-0.649854	 9.801436	 0.819683	 3.729233	 5.005610	-4.451261	 176.572400	-10.894080	-34.390580	-5.071877	 172.004500	 85.997920	 179.634200	-2.375065	 30.628350	-0.047754	 1.892224	-13.117480	 178.977400	 4.101989	-48.637340	 6.263968	-176.171600	 81.359440	-177.632000	 2.403139	 22.438360	-0.124254	-0.850513	 0.595711	-1.908089	-0.431862	-2.392254	-0.282086	-0.158032	-4.506557	-0.016625	-91.806530	 77.652740	 179.179600	 36.597900	 69.687850	-39.718270	-8.143187	-4.044734	-20.722470	 5.684871	-2.200061	-5.340314	-3.812334	 37.924440	-2.927599	-2.450526	 36.184240	 0.754587	-1.378229	 35.397820	-2.634230	 0.426599	 5.550270	-3.517406	 0.198781	-12.969430	-1.317063	 89.764880	 79.217290	-179.618900	-36.327050	 70.515100	 39.250360	 4.219623	-7.724903	 29.810980	-11.492850	-3.201509	 9.593667	 6.437017	 35.671460	-0.771858	 2.830251	 35.756010	-7.813440	-2.350882	 35.473990	 5.254307
-0.404778	 6.298965	-0.651019	 9.615321	 0.846218	 3.505799	 5.287424	-4.732857	 176.905400	-10.805700	-34.847850	-4.884423	 172.854800	 85.611480	 179.179700	-2.373971	 30.825250	-0.052152	 2.225683	-14.528940	 179.293100	 4.635777	-51.230980	 7.264764	-176.227300	 81.145370	-177.325300	 2.399208	 24.209470	-0.088108	-0.869744	 1.087341	-1.581652	-0.633245	-2.468691	-0.298284	-0.455122	-4.618037	-0.048318	-91.797290	 77.847950	 179.271800	 36.706360	 69.380530	-40.295310	-8.217731	-4.028798	-20.999160	 5.534771	-2.190261	-5.343459	-3.812334	 37.924440	-2.927599	-2.450526	 36.184240	 0.754587	-1.378229	 35.397820	-2.634230	 0.078872	 5.559590	-3.148929	-0.131646	-13.216750	-1.939008	 89.769580	 79.011280	-179.648400	-36.538040	 70.605940	 39.887830	 4.216849	-7.692171	 29.262060	-11.660010	-3.206103	 9.591105	 6.437017	 35.671460	-0.771858	 2.830251	 35.756010	-7.813440	-2.350882	 35.473990	 5.254307
-0.398116	 6.299303	-0.652564	 9.148039	 0.893005	 2.826478	 6.035848	-4.753802	 177.639700	-11.152150	-34.998610	-4.580199	 175.176800	 85.384290	 177.367800	-2.371793	 31.208080	-0.060738	 2.396767	-17.724740	-179.803700	 6.067339	-56.472840	 9.288569	-175.664000	 81.990870	-177.695400	 2.380289	 29.329140	 0.020476	-0.759236	 1.768894	-0.778300	-0.723809	-2.541688	-0.141208	-0.566342	-4.868851	-0.061355	-91.787280	 78.142100	 179.330500	 36.879180	 68.954540	-41.317660	-8.273586	-3.982148	-20.937700	 5.430790	-2.190810	-5.343921	-3.812334	 37.924440	-2.927599	-2.450526	 36.184240	 0.754587	-1.378229	 35.397820	-2.634230	-0.021900	 5.357158	-3.236140	-0.213000	-13.536100	-2.099859	 89.775660	 78.706150	-179.702800	-36.984350	 70.650830	 40.855690	 4.267622	-7.644023	 28.857950	-11.740140	-3.208236	 9.589866	 6.437017	 35.671460	-0.771858	 2.830251	 35.756010	-7.813440	-2.350882	 35.473990	 5.254307
